# xmcd CD database file
#
# Track frame offsets:
#	150
#	24327
#	43987
#	65717
#	88217
#	124852
#	151382
#	173790
#	202282
#	224335
#	253170
#	274347
#	298010
#	319352
#
# Disc length: 4627 seconds
#
# Revision: 4
# Processed by: cddbd v1.5.2PL0 Copyright (c) Steve Scherf et al.
# Submitted via: CDex 1.51
#
DISCID=e812110e
DTITLE=Cameo - Anthology [CD1]
DYEAR=2005
DGENRE=R&B
TTITLE0=Rigor Mortis
TTITLE1=Post Mortem
TTITLE2=Funk Funk
TTITLE3=Find My Way (TGIF Version)
TTITLE4=It's Serious
TTITLE5=We All Know Who We Are
TTITLE6=Insane
TTITLE7=I Just Want to Be (12-inch Version)
TTITLE8=Sparkle
TTITLE9=Shake Your Pants
TTITLE10=We're Goin' Out Tonight
TTITLE11=Why Have I Lost You (Version 2)
TTITLE12=Keep It Hot
TTITLE13=Feel Me
EXTD=YEAR: 2005
EXTT0=
EXTT1=
EXTT2=
EXTT3=
EXTT4=
EXTT5=
EXTT6=
EXTT7=
EXTT8=
EXTT9=
EXTT10=
EXTT11=
EXTT12=
EXTT13=
PLAYORDER=
